<?xml version="1.0" encoding="UTF-8"?>
<svg width="63px" height="63px" viewBox="0 0 63 63" version="1.1" xmlns="http://www.w3.org/2000/svg" xmlns:xlink="http://www.w3.org/1999/xlink">
    <title>果@1x</title>
    <g id="WAP" stroke="none" stroke-width="1" fill="none" fill-rule="evenodd">
        <g id="首页" transform="translate(-312.000000, -1005.000000)">
            <g id="1-2" transform="translate(0.000000, 817.000000)">
                <g id="编组-2" transform="translate(190.000000, 174.059372)">
                    <g id="编组-6" transform="translate(111.060441, 0.000000)">
                        <path d="M27.1903675,15.1686498 C33.9149348,38.2717022 39.823809,52.6849706 44.9169901,58.4084548 C50.8232196,65.0456057 56.4968827,68.9280542 61.9379795,70.0558003" id="直线-2" stroke="#0022AB" stroke-width="1.2" stroke-linecap="round" transform="translate(44.564174, 42.612225) rotate(-10.000000) translate(-44.564174, -42.612225) "></path>
                        <circle id="椭圆形" stroke="#0A2DB8" stroke-width="1.2" cx="44.9395592" cy="45.0333324" r="6.6"></circle>
                        <circle id="椭圆形" stroke="#0A2DB8" stroke-width="1.2" cx="54.4395592" cy="56.5333324" r="5.1"></circle>
                        <circle id="椭圆形" stroke="#0A2DB8" stroke-width="1.2" cx="47.9395592" cy="64.5333324" r="5.1"></circle>
                        <circle id="椭圆形" stroke="#0A2DB8" stroke-width="1.2" cx="35.9395592" cy="55.0333324" r="6.6"></circle>
                        <g id="植物萃取" transform="translate(32.420112, 31.925305) scale(-1, 1) rotate(-138.000000) translate(-32.420112, -31.925305) translate(6.296700, 12.487196)" fill="#0A2DB8" fill-rule="nonzero">
                            <path d="M29.2414605,32.0897577 C28.7835816,31.6343622 26.0591567,27.9284209 26.5170356,20.9023181 C26.9749144,14.5918368 30.8341793,9.90776829 38.0294188,6.91516894 C39.0759991,6.45977339 43.5665282,4.24557247 45.7905113,2.55410327 C46.1829789,2.29387724 46.706269,2.29387724 46.9679141,2.68421628 C47.0333254,2.74927279 47.0987366,2.87938581 47.0987366,3.00949882 L47.1641479,3.20466835 C48.6031958,9.05975403 49.0610747,14.0040486 48.5377845,17.9724956 C47.4912043,25.974446 39.8380859,31.8295317 29.8955731,32.3499838 C29.6339281,32.3499838 29.4376943,32.2849273 29.2414605,32.0897577 Z M38.5527089,8.15124258 C31.749937,10.9486724 28.2177285,15.1122889 27.8906722,20.9673746 C27.4982046,26.9525733 29.372283,30.1380625 30.1572182,30.9837971 C39.2493845,30.4633451 46.3138014,25.0636549 47.2949705,17.7773261 C47.7528493,14.1341616 47.3603817,9.51514959 46.0521564,4.05040295 C43.8935845,5.54670262 39.5338779,7.76090354 38.5527089,8.15124258 Z" id="形状" transform="translate(37.606241, 17.361363) rotate(15.000000) translate(-37.606241, -17.361363) "></path>
                            <path d="M10.016283,30.7417753 C5.2483083,24.794357 2.24298875,16.857033 2.3772979,15.8888486 C2.51160704,15.3356004 2.98168905,14.9206642 3.58608021,14.9206642 C9.39570648,14.9637058 15.1575942,16.9625909 18.4365252,18.991829 C24.3121202,22.6280694 25.2125889,35.003432 25.288665,35.1078899 L24.2141918,35.8686062 C24.1874655,35.8410833 23.2849325,23.5529534 17.2665333,19.9043645 C14.1745428,18.029879 8.85477187,16.387051 3.72038936,16.3037847 C3.45177106,17.6869053 6.92717262,24.5868889 11.0907561,29.8427469 C13.8440936,33.3005482 18.34345,35.0294489 24.4545162,35.0294489 L25.0637431,36.2745159 C18.5497495,36.2745159 13.1053933,34.5453567 10.016283,30.7417753 Z" id="形状" transform="translate(13.830820, 25.597590) rotate(-15.000000) translate(-13.830820, -25.597590) "></path>
                            <path d="M30.3678107,31.4803055 C29.9446105,31.4803055 29.9011682,31.3813247 29.9011682,30.9620465 C29.9011682,30.8222871 30.0422349,14.8897172 43.7962399,8.53066522 C44.1489067,8.39090584 44.3245227,8.38737681 44.4655894,8.73677527 C44.6066562,9.08617374 44.4899799,9.25881146 44.1373131,9.39857084 C31.2297083,15.4082244 30.9035427,30.8581709 30.9035427,30.9979303 C30.9035427,31.2308626 30.7249654,31.3916543 30.3678107,31.4803055 Z" id="路径" transform="translate(37.212559, 19.961234) scale(-1, -1) rotate(19.000000) translate(-37.212559, -19.961234) "></path>
                            <path d="M14.055564,22.9695423 C13.6157416,22.7737861 13.5083037,22.4713994 13.7582774,22.0796518 C14.0082511,21.6879042 14.3362329,21.7213813 14.7528557,21.9564299 C21.5854693,25.7955567 26.1963818,32.485674 26.3630309,32.7990721 C26.6130046,33.1908198 26.6886109,33.5215708 26.2719881,33.7566279 C26.0220144,33.7566279 20.7309741,25.9406337 14.055564,22.9695423 Z" id="路径" transform="translate(20.096790, 27.769203) scale(-1, -1) rotate(-10.000000) translate(-20.096790, -27.769203) "></path>
                        </g>
                        <circle id="椭圆形" stroke="#0A2DB8" stroke-width="0.7" cx="47.4395592" cy="42.4406284" r="2.15"></circle>
                        <circle id="椭圆形" stroke="#0A2DB8" stroke-width="0.7" cx="56.9395592" cy="54.9406284" r="1.65"></circle>
                        <circle id="椭圆形" stroke="#0A2DB8" stroke-width="0.7" cx="50.9395592" cy="65.9406284" r="1.65"></circle>
                        <circle id="椭圆形" stroke="#0A2DB8" stroke-width="1.2" cx="66.4395592" cy="62.5333324" r="4.1"></circle>
                        <circle id="椭圆形备份" stroke="#0A2DB8" stroke-width="1.2" cx="60.4395592" cy="70.5333324" r="4.1"></circle>
                        <circle id="椭圆形" stroke="#0A2DB8" stroke-width="0.7" cx="67.9395592" cy="63.9406284" r="1.65"></circle>
                        <circle id="椭圆形备份-2" stroke="#0A2DB8" stroke-width="0.7" cx="61.7252735" cy="72.2395861" r="1.36428571"></circle>
                        <circle id="椭圆形" stroke="#0A2DB8" stroke-width="0.7" cx="39.4395592" cy="57.4406284" r="2.15"></circle>
                    </g>
                </g>
            </g>
        </g>
    </g>
</svg>