<?xml version="1.0" encoding="UTF-8"?>
<svg width="62px" height="62px" viewBox="0 0 62 62" version="1.1" xmlns="http://www.w3.org/2000/svg" xmlns:xlink="http://www.w3.org/1999/xlink">
    <title>世界</title>
    <g id="WAP" stroke="none" stroke-width="1" fill="none" fill-rule="evenodd">
        <g id="首页" transform="translate(-689.000000, -1005.000000)" fill="#0A2DB8" fill-rule="nonzero">
            <g id="1-2" transform="translate(0.000000, 817.000000)">
                <g id="编组-2" transform="translate(570.000000, 187.853983)">
                    <g id="世界" transform="translate(119.000000, 0.146017)">
                        <path d="M30.5071445,60.9997771 C30.311633,60.9997771 30.1171937,60.9979899 29.9210864,60.9942965 C22.0336661,60.8481097 14.5899295,57.6675022 8.96095968,52.0387707 C3.33210899,46.4098008 0.15173984,38.9660643 0.00543380421,31.078644 C-0.149688719,22.7102485 3.02102995,14.8454651 8.9333188,8.93305711 C14.8457268,3.02088741 22.7062211,-0.147686708 31.0789056,0.00529126385 C38.966326,0.151478158 46.4100625,3.33208559 52.0389132,8.96093628 C57.6676448,14.589787 60.8481331,22.0336427 60.9945582,29.921063 C61.1497999,38.2894584 57.9789621,46.1542418 52.0665541,52.0665307 C46.2930654,57.8402577 38.6556044,60.9997771 30.5071445,60.9997771 Z M30.4937437,1.19158503 C22.6889772,1.19158503 15.3767348,4.21656758 9.84678077,9.74652166 C4.18470047,15.408484 1.14839281,22.9402682 1.29679887,30.9545491 C1.43694703,38.5065062 4.48304619,45.6344797 9.87414977,51.0255832 C15.2651354,56.4166868 22.3933448,59.462786 29.9451839,59.6028162 C37.9658352,59.7536996 45.4917209,56.7150325 51.1532113,51.0531882 C56.8150557,45.3912259 59.8515993,37.8594416 59.7028393,29.8452787 C59.5630451,22.2932037 56.5168279,15.1652302 51.1258423,9.7741266 C45.7348567,4.38302302 38.6066473,1.33680589 31.0548082,1.1967757 C30.8678064,1.19333837 30.6807771,1.19158503 30.4937437,1.19158503 Z" id="形状"></path>
                        <path d="M30.2622464,60.3985877 C29.9917153,60.396464 29.7735103,60.176585 29.7734543,59.9060456 L29.7734543,57.1113409 C29.7734543,56.4666885 29.5123589,55.8359815 29.0573171,55.3808224 L26.9591792,53.286083 C26.3203862,52.64729 25.954173,51.7627533 25.954173,50.8587634 L25.954173,48.9312515 C25.954173,48.027496 26.3203862,47.1429593 26.9587104,46.5042835 L35.4971614,37.969231 C36.1315012,37.3312584 37.0149832,36.9646936 37.9206138,36.9646936 L41.0207109,36.9646936 C42.9130663,36.9646936 44.4524508,38.5040781 44.4524508,40.3963163 C44.4524508,41.051164 44.7063977,41.6640584 45.1676505,42.1222644 C45.6300752,42.5851578 46.244493,42.8394563 46.8987549,42.8394563 L50.4946754,42.8394563 C51.4080404,42.8394563 52.2697254,43.1959428 52.920706,43.8431734 L55.4403699,46.3629545 C55.6062042,46.5287721 55.632092,46.7885324 55.5022453,46.9838177 C49.9124843,55.3969944 40.5809035,60.3995252 30.5035369,60.3995252 C30.4230286,60.3995252 30.3428719,60.3991736 30.2622464,60.3985877 Z M36.1947828,38.6648603 L27.6555116,47.2008503 C27.2004697,47.6561265 26.9393744,48.2868335 26.9393744,48.9312515 L26.9393744,50.8587634 C26.9393744,51.5034158 27.2004697,52.1341228 27.6555116,52.5892818 L29.7536495,54.6840213 C30.3924425,55.3228143 30.7586557,56.207351 30.7586557,57.1113409 L30.7586557,59.6081769 C40.273636,59.526028 49.2340584,54.8491395 54.6164932,46.9838177 L52.2253111,44.5407949 C51.7612457,44.0794248 51.1461247,43.8246576 50.4947926,43.8246576 L46.8988721,43.8246576 C45.9814055,43.8246576 45.1197205,43.4678195 44.4721384,42.8198858 C43.8246735,42.1765225 43.4673666,41.3155407 43.4673666,40.3963163 C43.4673666,39.0473627 42.3698989,37.949895 41.0208281,37.949895 L37.9207309,37.949895 C37.2754926,37.949895 36.6466606,38.2104044 36.1947828,38.6648603 Z" id="形状"></path>
                        <path d="M37.3855323,25.2443481 L37.3855323,17.4255501 C37.3855323,16.9496487 37.2466643,16.4917943 36.9836939,16.1014404 L34.5031709,12.3892691 C34.280237,12.0531137 33.9770346,11.777823 33.620978,11.5882876 C33.26491,11.3972096 32.8670217,11.2973953 32.462924,11.297778 C30.5671701,11.297778 29.0247388,9.75382322 29.0247388,7.85619437 L29.0247388,3.20276733 C29.0247388,2.48030195 28.7100884,1.79978995 28.1616475,1.33595898 C28.0083516,1.20622582 27.949145,0.996430012 28.0120016,0.805696255 C28.0748582,0.614962498 28.2471953,0.481472315 28.4475868,0.468297394 C29.320537,0.410441508 30.1955344,0.389328968 31.0702591,0.405015755 C38.1104587,0.536735315 44.9229615,3.18671254 50.252213,7.86674131 C50.374604,7.97438713 50.4358641,8.13557829 50.4158607,8.29734058 C50.3958574,8.45910286 50.2971775,8.600516 50.1522514,8.67510565 C50.0338913,8.73592634 49.9049843,8.7920595 49.7468974,8.85205987 C48.1758721,9.45136042 47.1194203,10.983362 47.1194203,12.6638411 L47.1194203,12.8180608 C47.1194203,13.7222851 46.7679728,14.5694388 46.1301173,15.2035442 C45.4939025,15.8397591 44.6472176,16.1906206 43.7467433,16.1906206 C42.4302509,16.1906206 41.3595021,17.2616037 41.3595021,18.577979 L41.3595021,25.2442309 C41.3595021,25.7711092 41.1539539,26.2696279 40.7805923,26.6477943 C40.3980899,27.0256091 39.899454,27.2311572 39.3722242,27.2311572 C38.2767488,27.2311572 37.3855323,26.3398236 37.3855323,25.2443481 Z M29.619194,1.19158503 C29.9520035,1.73316057 30.0106101,2.56710564 30.0099401,3.20276733 L30.0099401,7.85607718 C30.0099401,9.21053863 31.1104547,10.3124595 32.462924,10.3124595 C33.0305837,10.3124595 33.5917981,10.4532025 34.0859808,10.7194542 C34.5851466,10.9856659 35.0103167,11.3717742 35.323254,11.8430548 L37.8019021,15.5524136 C38.1738575,16.1046044 38.3708509,16.7526553 38.3708509,17.4254329 L38.3708509,25.2442309 C38.3708509,25.796539 38.8201505,26.2459558 39.3723414,26.2459558 C39.6388274,26.2459558 39.8916024,26.1413068 40.0839083,25.9513447 C40.2700055,25.7631078 40.3743167,25.5090466 40.3741835,25.2443481 L40.3741835,18.577979 C40.3741835,16.7183192 41.8868491,15.2054192 43.7466261,15.2054192 C44.3838957,15.2054192 44.9831962,14.9569802 45.4344881,14.5058056 C45.8860143,14.0568575 46.1342189,13.4579085 46.1342189,12.8179436 L46.1342189,12.6637239 C46.1342189,10.719337 47.2730541,8.93514631 49.0073225,8.09877399 C43.9456117,3.88866998 37.6193228,1.31404672 31.0702591,1.19158503 C30.5628342,1.18209278 30.1429082,1.17377242 29.619194,1.19158503 Z" id="形状"></path>
                        <path d="M9.98094983,47.287218 C9.58157237,47.0015131 9.28215647,46.5981513 9.11844453,46.1231874 L5.4437735,34.2132314 C4.12599196,30.7933275 3.29958063,29.6546096 1.01968381,29.6546096 C0.747660323,29.6546096 0.527141718,29.434091 0.527141718,29.1620675 C1.02390258,17.1242592 8.61312892,6.6083742 19.8617918,2.3415511 C20.0131836,2.28412513 20.183128,2.30475507 20.316383,2.39673501 C20.4496381,2.48871495 20.5291896,2.64030064 20.5291787,2.80221799 L20.5291787,6.63450717 C20.5291787,7.90388997 19.4980396,8.93655257 18.2304146,8.93655257 C17.8767406,8.93655257 17.5473245,9.07249091 17.3031042,9.31917211 C17.0513839,9.5710096 16.9135706,9.90101163 16.9135706,10.2501153 L16.9135706,17.4582456 C16.9135706,18.7257534 15.8824314,19.7570097 14.6148064,19.7570097 L11.4690059,19.7570097 C10.9403698,19.7570097 10.5101718,20.1870905 10.5101718,20.7158437 C10.5101718,20.9697906 10.6106021,21.2099093 10.7927126,21.3921369 C10.9750575,21.5744818 11.2151762,21.6747949 11.4690059,21.6747949 L20.32574,21.6747949 C23.9725202,21.6747949 26.9393744,24.6431726 26.9393744,28.2918278 C26.9393744,30.0567996 26.2514795,31.7185285 25.0024875,32.9710362 C23.7529095,34.2207314 22.0922352,34.9088607 20.3256228,34.9088607 L19.3863592,34.9088607 C18.5317055,34.9088607 17.8364278,35.6056618 17.8364278,36.4621905 L17.8364278,37.4112979 C17.8364278,38.810994 16.6975927,39.949712 15.2980138,39.949712 C14.8805893,39.949712 14.4916416,40.1101426 14.203007,40.4014725 C13.9069896,40.6976072 13.7446839,41.0881955 13.7446839,41.5029246 L13.7446839,45.3581827 C13.7448011,46.6691673 12.6781539,47.7358344 11.3671693,47.7358344 C10.8691848,47.7372693 10.3836673,47.5801503 9.98094983,47.287218 Z M1.29160504,28.6109833 C4.00673892,28.8311799 5.22826437,30.9111017 6.36909169,33.874909 C6.37307609,33.8853387 6.37682611,33.8958857 6.37999019,33.906667 L10.0546612,45.8174433 C10.148891,46.0873954 10.3242849,46.3216087 10.5568127,46.4879943 C10.7920377,46.6595913 11.0758898,46.751636 11.3670521,46.7510079 C12.1347521,46.7510079 12.7594825,46.1261171 12.7594825,45.3582999 L12.7594825,41.5030418 C12.7594825,40.825108 13.0242107,40.1870181 13.5047996,39.7065464 C13.9783572,39.2286528 14.6156268,38.9646278 15.2980138,38.9646278 C16.1544253,38.9646278 16.8513436,38.2678266 16.8513436,37.4112979 L16.8513436,36.4621905 C16.8513436,35.0624944 17.9885381,33.9237765 19.3864764,33.9237765 L20.32574,33.9237765 C21.8291477,33.9237765 23.2424376,33.3383041 24.3055691,32.2750554 C25.3684663,31.208877 25.9542902,29.7941808 25.9542902,28.2918278 C25.9542902,25.18634 23.4293528,22.6599963 20.32574,22.6599963 L11.4690059,22.6599963 C10.9520886,22.6599963 10.4644684,22.4570263 10.0961458,22.0887037 C9.72782327,21.7204983 9.52497046,21.2328782 9.52497046,20.7158437 C9.52497046,19.6439231 10.3970852,18.7718083 11.4690059,18.7718083 L14.6150408,18.7718083 C15.3393812,18.7718083 15.9286036,18.182586 15.9286036,17.4582456 L15.9286036,10.2499981 C15.9286036,9.63768969 16.1688394,9.06030333 16.6048968,8.62424597 C17.0336885,8.19088393 17.6116608,7.95123402 18.2305318,7.95123402 C18.9548722,7.95123402 19.5440946,7.3604882 19.5440946,6.6342728 L19.5440946,3.21544495 C9.18172617,7.43808809 1.93895277,17.4381412 1.29160504,28.6109833 Z" id="形状"></path>
                    </g>
                </g>
            </g>
        </g>
    </g>
</svg>