<?xml version="1.0" encoding="UTF-8"?>
<svg width="63px" height="65px" viewBox="0 0 63 65" version="1.1" xmlns="http://www.w3.org/2000/svg" xmlns:xlink="http://www.w3.org/1999/xlink">
    <title>咖啡豆</title>
    <g id="WAP" stroke="none" stroke-width="1" fill="none" fill-rule="evenodd">
        <g id="首页" transform="translate(-1067.000000, -1005.000000)" fill="#0A2DB8" fill-rule="nonzero">
            <g id="1-2" transform="translate(0.000000, 817.000000)">
                <g id="编组-2" transform="translate(950.000000, 187.853983)">
                    <g id="咖啡豆" transform="translate(117.429253, 0.546017)">
                        <g transform="translate(38.552988, 47.646052) rotate(19.000000) translate(-38.552988, -47.646052) translate(25.696991, 34.566645)" id="形状">
                            <path d="M4.1682946,24.9531901 C1.30932889,23.0352567 -0.223035078,19.6473315 0.026334167,15.6528122 C0.0474076243,15.3108277 0.37858453,15.0426923 0.726296576,15.063846 C1.06698414,15.0849997 1.33040235,15.3811512 1.30581665,15.7266612 C1.08454535,19.2663765 2.38056297,22.2525706 4.86020645,23.9201855 C5.30977354,24.2233882 5.86822016,24.2551187 6.32129949,24.0083258 C8.03176177,23.0669872 12.0251819,20.0913699 12.1726961,12.8215563 C12.2815757,7.38506124 15.3863984,3.58092498 17.2303259,1.79696488 C17.3321809,1.69824773 17.3111075,1.57485128 17.2935463,1.52901831 C17.275985,1.4726085 17.2268136,1.37741696 17.1038851,1.35978889 C15.9624062,1.17998264 14.7506824,1.21876438 13.4968117,1.4726085 C9.06157012,2.37434684 4.70147353,5.94500227 2.57304904,10.4874909 C1.02653842,13.0146334 1.4126154,15.6410266 1.30127412,15.9180613 C1.17132114,16.2388921 0.745924585,16.4165963 0.426310483,16.2896743 C0.106696381,16.1627522 -0.017741336,15.9166305 0.0322200783,15.4646136 C0.149448885,15.1948255 0.0522541451,12.7148882 1.47758513,9.94115789 C3.78139927,4.99623634 8.36692338,1.24030811 13.2439302,0.249220846 C14.6418029,-0.0363537945 16.0045531,-0.0751355358 17.290034,0.125824396 C17.8484806,0.213964718 18.30156,0.608833356 18.4701476,1.15177773 C18.6422475,1.70177334 18.4947333,2.2940763 18.0838009,2.69247055 C16.3803631,4.34245736 13.5073484,7.85749337 13.4054934,12.8427099 C13.2509547,20.764762 8.81499193,24.0541588 6.91486854,25.0977402 C6.52852182,25.3128026 6.10002819,25.4185709 5.67153455,25.4185709 C5.15172261,25.4185709 4.62839842,25.263444 4.1682946,24.9531901 Z M10.4255441,26.1552899 C10.0462219,26.1552899 9.71958327,25.9155483 9.60719149,25.5524101 C9.49128748,25.1822208 9.62826495,24.7873521 9.9513913,24.5687641 C11.8444902,23.2854411 15.0125333,20.14412 14.9528252,13.5441728 L14.9528252,13.4348788 C14.9493129,11.8201481 15.2267801,10.2054174 15.7782022,8.64004531 C15.890594,8.31568893 16.2488428,8.14645952 16.5719691,8.25927913 C16.8950955,8.37562435 17.0636831,8.72818564 16.9512914,9.05606763 C16.4490406,10.4874664 16.1961591,11.9611726 16.1961591,13.4348788 L16.1961591,13.5371216 C16.252355,19.6329062 13.7270524,23.0456994 11.6794148,24.8085058 C12.0165901,24.7626729 12.3572777,24.6956862 12.6979652,24.6181227 C18.9673188,23.1479422 24.2427076,16.5938279 24.4639789,10.0115087 C24.5658339,7.01473779 23.5929427,4.43046358 21.7279417,2.73111819 C21.5523295,2.57246561 21.2783746,2.57599122 21.1062747,2.74169502 C20.6505777,3.17421707 20.0572267,3.79146123 19.4388354,4.58221669 C18.5892997,5.37569615 17.0273423,8.8495546 16.7282723,9.65157396 C16.5971149,10.0033002 16.1628012,10.0323401 15.8712851,9.84900828 C15.5797689,9.66567641 15.4919628,9.28138461 15.6745995,8.98875874 C15.896612,8.33373987 16.7681613,5.87136703 18.5095343,3.75108963 C19.156048,2.9314942 19.7737403,2.28866003 20.2492874,1.83561252 C20.8920279,1.2256815 21.9070661,1.21157905 22.5603432,1.80740762 C24.7028114,3.75707152 25.8197046,6.68333019 25.7038006,10.0538161 C25.4649681,17.1649772 19.7575734,24.2444078 12.9789447,25.8344592 C12.1219574,26.0354191 11.2649701,26.1447131 10.4395931,26.1588155 C10.4325686,26.1552899 10.4290563,26.1552899 10.4255441,26.1552899 Z"></path>
                        </g>
                        <g id="咖啡豆备份" transform="translate(15.570747, 32.600000) rotate(-61.000000) translate(-15.570747, -32.600000) translate(4.313152, 21.037310)">
                            <path d="M3.65112709,22.0640859 C1.12317517,20.3682127 -0.196701456,17.366143 0.0237955797,13.8341129 C0.042429132,13.5317237 0.300193272,13.3010351 0.607646885,13.3197396 C0.908889314,13.338444 1.14180872,13.6003068 1.12006957,13.9058134 C0.924417274,17.0356971 2.07038074,19.6761467 4.26292873,21.1506836 C4.66044451,21.4187812 5.15423365,21.4468379 5.55485502,21.2286189 C7.06727835,20.3962694 10.5983365,17.765172 10.7287714,11.3370642 C10.8250447,6.5300118 13.5703881,3.16632207 15.2008239,1.58891058 C15.2908861,1.50162298 15.2722525,1.39251349 15.2567246,1.35198711 C15.2411966,1.30210849 15.1977183,1.21793831 15.0890226,1.20235124 C14.0797052,1.04336312 13.0082759,1.07765468 11.8995796,1.30210849 C7.74429742,2.14692769 4.64306348,5.21162222 2.79676573,8.74282945 C0.950467983,12.2740367 1.22135617,13.905673 1.12006957,13.9058134 C0.842955773,13.9061975 -0.0502358942,14.8591051 0.0237955797,13.8341129 C0.0369733024,13.6516626 0.00482960289,12.7381871 1.5066508,9.0642522 C3.00847199,5.39031731 7.10454545,1.1493552 11.6759769,0.220365819 C12.9120026,-0.0321447175 14.1169723,-0.0664362717 15.253619,0.111256328 C15.7474081,0.189191678 16.1480295,0.538342049 16.2970979,1.01842381 C16.4492719,1.5047404 16.3188371,2.02846595 15.9554828,2.38073374 C14.4492707,3.8396835 11.9088964,6.94774528 11.8188342,11.3557687 C11.6821881,18.360598 7.75982538,21.2691453 6.07970008,22.1918999 C5.73808495,22.3820621 5.35920272,22.4755845 4.98032049,22.4755845 C4.52069287,22.4755845 4.05795965,22.3384183 3.65112709,22.0640859 Z M8.99861934,23.1222629 C8.6632154,23.1222629 8.37439534,22.9102787 8.2750164,22.5891851 C8.17253186,22.2618566 8.29364995,21.9127062 8.57936442,21.7194266 C10.2532785,20.5846879 13.0545226,17.807072 13.0017275,11.9712729 L13.0017275,11.8746331 C13.1751804,9.8346214 13.3846527,8.39270074 13.7830289,7.35182247 C14.2339426,6.17367373 14.7463836,5.46578728 15.1395331,4.75907574 C15.2769531,4.51205434 15.00794,5.43093829 15.2936544,5.53069554 C15.5793689,5.6335702 16.2117871,5.14000104 16.0514189,5.35612035 C15.7040762,5.82421466 15.0555913,6.7816919 14.6545014,7.9710867 C14.1770058,9.38705543 14.1011071,11.1664328 14.1011071,11.8746331 L14.1011071,11.9650381 C14.1507966,17.3550469 11.9178759,20.3727037 10.1073157,21.9314107 C10.4054525,21.8908843 10.706695,21.8316535 11.0079374,21.7630704 C16.5514192,20.4631087 21.2160185,14.667836 21.4116708,8.84762406 C21.5017329,6.19782214 20.6414839,3.91275766 18.9924146,2.4101641 C18.837135,2.26988047 18.5948988,2.27299788 18.4427248,2.41951634 C17.8153952,3.01494242 16.8930343,4.00628008 16.0514189,5.35612035 C16.0178204,5.40995286 15.9765595,5.45595888 15.9299576,5.49360502 C15.752568,5.63690461 15.4977902,5.65907468 15.2936544,5.53069554 C15.0358903,5.36859001 14.8367003,5.26879966 14.9941271,4.99033387 C15.8498786,3.47662988 17.0141524,2.25741081 17.6849603,1.61834094 C18.2532837,1.07902831 19.1507998,1.06655865 19.7284399,1.59340162 C21.622851,3.31733158 22.6104293,5.90478522 22.5079448,8.88503303 C22.2967645,15.1728571 17.2501774,21.4326245 11.2563848,22.8385782 C10.4986203,23.0162708 9.74085584,23.1129106 9.01104171,23.1253803 C9.00483053,23.1222629 9.00172493,23.1222629 8.99861934,23.1222629 Z" id="形状"></path>
                        </g>
                        <g id="咖啡豆备份-2" transform="translate(34.070747, 13.513043) scale(-1, 1) rotate(-63.000000) translate(-34.070747, -13.513043) translate(24.570747, 3.600000)">
                            <path d="M3.01614847,18.2268536 C0.927840354,16.8259148 -0.162492507,14.3459442 0.019657218,11.4281802 C0.0350501525,11.1783805 0.247985747,10.9878116 0.501969166,11.0032631 C0.750821607,11.0187146 0.943233288,11.2350361 0.925274865,11.4874111 C0.763649053,14.0729671 1.71031452,16.2542082 3.52154982,17.4723038 C3.84993242,17.6937758 4.25784519,17.7169531 4.58879328,17.5366852 C5.83818646,16.8490921 8.75514755,14.6755768 8.86289809,9.36540089 C8.94242825,5.39435758 11.2103206,2.61565736 12.5572024,1.3125783 C12.6316016,1.24047116 12.6162086,1.15033723 12.6033812,1.11685892 C12.5905537,1.07565484 12.5546369,1.00612295 12.4648448,0.993246674 C11.6310608,0.861908665 10.7459671,0.890236471 9.83008748,1.07565484 C6.72103675,1.70776251 3.7403677,4.13771772 2.13094069,7.26526719 C1.48244541,8.37419269 0.93436032,11.2753583 0.878124294,11.7916094 C0.783201198,12.0259577 0.521521311,12.1366936 0.288061805,12.0439844 C0.054602298,11.9512753 -0.0557137326,11.686024 0.0366438744,11.4516758 C0.0701341221,10.7647837 0.741958634,7.87423013 1.35974357,6.77244378 C3.10256746,3.40393409 6.24613405,0.872821929 9.64537226,0.182041328 C10.6664369,-0.0265543318 11.6618467,-0.0548821375 12.6008157,0.0919074011 C13.0087285,0.156288778 13.3396765,0.444717345 13.46282,0.841306625 C13.588529,1.24304641 13.4807784,1.67568927 13.1806162,1.96669309 C11.936354,3.17191246 9.83778394,5.73944176 9.76338476,9.38085242 C9.65050324,15.1674505 6.41029053,17.5701635 5.02236093,18.332439 C4.74015713,18.4895296 4.42716747,18.5667872 4.1141778,18.5667872 C3.73448541,18.5667872 3.35222754,18.453476 3.01614847,18.2268536 Z M7.83413697,19.8235117 C7.55706415,19.8235117 7.31847366,19.6483944 7.23637801,19.3831431 C7.15171687,19.1127413 7.25177095,18.8243127 7.48779594,18.6646469 C8.87059456,17.7272541 11.1846657,15.4327018 11.1410524,10.6118243 L11.1410524,10.5319914 C11.1388873,9.53658144 11.2829037,8.54117145 11.5700175,7.56743336 C11.701928,6.98747829 12.7961273,4.87025327 12.9869189,4.51898139 C13.1777105,4.16770951 13.3306944,4.15844568 13.5667194,4.24085384 C13.8027444,4.32583726 13.9258879,4.58336276 13.8437922,4.82286149 C13.7747129,5.01973557 12.5981846,7.03757725 12.4129693,7.92722764 C12.1709375,8.78446424 12.0492355,9.65822784 12.0492355,10.5319914 L12.0492355,10.6066738 C12.0902834,15.0592898 10.2456967,17.5521367 8.75001657,18.8397643 C8.99630352,18.806286 9.24515597,18.7573561 9.49400841,18.7007005 C14.0734064,17.6268191 17.926771,12.83942 18.0883968,8.03141876 C18.162796,5.84245196 17.4521555,3.95479 16.0898808,2.71351706 C15.9616064,2.59763058 15.7614982,2.60020583 15.6357893,2.72124282 C15.1175605,3.21311654 14.3556102,4.03204765 13.6603627,5.14713309 C13.5269572,5.36087926 13.2473189,5.42526064 13.0343833,5.29134738 C12.8214477,5.15743411 12.7573105,4.87673131 12.890716,4.66298514 C13.6372733,3.46806679 14.4556643,2.58732956 15.0098099,2.05940227 C15.4792944,1.61388314 16.2207208,1.60358212 16.6979018,2.03880023 C18.2628501,3.46291628 19.0786756,5.60037798 18.9940145,8.06232182 C18.8195612,13.2566113 14.6506415,18.4277235 9.69924753,19.5891635 C9.0732682,19.735953 8.44728886,19.8157859 7.84439893,19.826087 C7.83926795,19.8235117 7.83670246,19.8235117 7.83413697,19.8235117 Z" id="形状"></path>
                        </g>
                    </g>
                </g>
            </g>
        </g>
    </g>
</svg>